<svg xmlns="http://www.w3.org/2000/svg" width="256" height="256"><path fill-opacity=".016" d="M0 128.004v128.004l128.25-.254 128.25-.254.254-127.75L257.008 0H0v128.004m.485.496c0 70.4.119 99.053.265 63.672.146-35.38.146-92.98 0-128C.604 29.153.485 58.1.485 128.5" fill="#1976D2" fill-rule="evenodd"/><path fill-opacity=".075" d="M21.177 5.548C13.359 9.459 7.477 15.315 3.146 23.5L.5 28.5v198l2.848 5.801c3.635 7.401 10.95 14.716 18.351 18.351L27.5 253.5h201l5.801-2.848c7.51-3.688 14.809-11.052 18.188-18.351 1.476-3.191 3.096-6.582 3.598-7.537 1.301-2.474 1.214-195.068-.087-194.264-.55.34-1-.098-1-.974 0-2.718-4.596-10.804-8.939-15.728-2.638-2.991-6.728-5.994-11.238-8.25L227.731 2H28.269l-7.092 3.548M33.75 3.662c.688.278 1.813.278 2.5 0 .688-.277.125-.504-1.25-.504s-1.937.227-1.25.504m186 0c.688.278 1.813.278 2.5 0 .688-.277.125-.504-1.25-.504s-1.937.227-1.25.504M.237 128c0 53.625.343 96.15.763 94.5.42-1.65.763-44.175.763-94.5S1.42 35.15 1 33.5C.58 31.85.237 74.375.237 128m254.243 0c0 50.875.121 71.687.27 46.25.148-25.438.148-67.063 0-92.5-.149-25.438-.27-4.625-.27 46.25M62.195 88.5c.02 1.65.244 2.204.498 1.231.254-.973.237-2.323-.037-3-.274-.677-.481.119-.461 1.769M202.336 99c0 4.125.177 5.813.392 3.75.216-2.062.216-5.437 0-7.5-.215-2.062-.392-.375-.392 3.75m19 0c0 4.125.177 5.813.392 3.75.216-2.062.216-5.437 0-7.5-.215-2.062-.392-.375-.392 3.75m-25.257-2.417c.048 1.165.285 1.402.604.605.289-.722.253-1.585-.079-1.917-.332-.332-.568.258-.525 1.312M34.286 100.5c.008 2.75.202 3.756.432 2.236.229-1.52.223-3.77-.014-5-.237-1.23-.425.014-.418 2.764m199.527 9.183c.721.289 1.584.253 1.916-.079.332-.332-.258-.568-1.312-.525-1.165.048-1.402.285-.604.604M70.75 117.732c2.337.211 6.162.211 8.5 0 2.337-.21.425-.383-4.25-.383s-6.588.173-4.25.383m101.329 56.851c.048 1.165.285 1.402.604.605.289-.722.253-1.585-.079-1.917-.332-.332-.568.258-.525 1.312m-170 49c.048 1.165.285 1.402.604.605.289-.722.253-1.585-.079-1.917-.332-.332-.568.258-.525 1.312m251 0c.048 1.165.285 1.402.604.605.289-.722.253-1.585-.079-1.917-.332-.332-.568.258-.525 1.312M12 241.5c1.866 1.925 3.617 3.5 3.892 3.5.275 0-1.026-1.575-2.892-3.5-1.866-1.925-3.617-3.5-3.892-3.5-.275 0 1.026 1.575 2.892 3.5m230.946.25-3.446 3.75 3.75-3.446c3.49-3.208 4.21-4.054 3.446-4.054-.167 0-1.854 1.688-3.75 3.75m-160.696 11c25.163.148 66.338.148 91.5 0 25.163-.149 4.575-.271-45.75-.271s-70.912.122-45.75.271" fill="#1976D2" fill-rule="evenodd"/><path fill-opacity=".341" d="M24.782 3.938C17.851 6.647 10.739 12.27 6.689 18.241-.424 28.727-.078 22.769.226 129.5l.274 96 2.68 5.718c3.742 7.985 10.765 15.137 18.694 19.041l6.584 3.241h199.084l6.584-3.241c8.053-3.965 15.092-11.208 18.505-19.041 1.37-3.145 2.914-6.499 3.43-7.454 1.067-1.974 1.34-193.498.274-192.432-.366.366-1.462-1.597-2.435-4.361-2.458-6.98-7.924-14.059-14.141-18.316-10.324-7.067-3.411-6.66-112.135-6.608-92.927.044-98.374.144-102.842 1.891m-.053 1.475C14.293 9.718 6.413 17.919 2.986 28.04c-.919 2.717-1.968 4.645-2.329 4.284-.361-.362-.65 42.73-.642 95.759C.025 190.701.37 223.974 1 223c.803-1.243.972-1.158.985.5.03 3.69 5.673 13.958 10.115 18.405 2.42 2.423 7.325 5.798 10.9 7.5l6.5 3.095h197l6.5-3.095c3.575-1.702 8.482-5.077 10.905-7.5s5.798-7.33 7.5-10.905l3.095-6.5v-194l-2.688-5.736c-3.435-7.328-11.248-15.141-18.576-18.576L227.5 3.5 129 3.266l-98.5-.234-5.771 2.381M18.187 69.25c.2 2.083.852 3.25 1.813 3.25 1.267 0 1.542 2.756 1.773 17.712l.273 17.712-2.523 1.653c-1.641 1.075-2.523 2.574-2.523 4.288l.001 2.635 13.847-.012c13.646-.011 13.917-.055 18.723-3.026 6.25-3.864 10.228-10.242 11.682-18.729 2.129-12.43-2.308-22.581-11.744-26.868-3.249-1.476-6.629-1.825-17.822-1.843L17.873 66l.314 3.25m16.443 7c-.331 1.237-.609 8.888-.616 17L34 108h3.566c4.852 0 7.34-1.531 9.019-5.548 1.84-4.405 1.836-17.508-.006-21.918-2.388-5.715-10.761-8.717-11.949-4.284M157 78.151c-1.375.56-5.773.978-9.773.93-4.152-.051-8.702.509-10.602 1.302-7.639 3.192-10.668 14.004-5.777 20.624l2.349 3.178-2.696 2.814c-3.098 3.234-2.807 5.709 1.097 9.329l2.443 2.265-3.02 2.234c-1.669 1.233-3.021 3.159-3.021 4.303 0 3.134 5.907 8.448 10.304 9.27 5.636 1.053 13.532-1.569 17.912-5.949 4.223-4.223 5.346-7.679 3.749-11.535-1.482-3.579-5.826-5.563-14.069-6.426-3.633-.381-7.178-1.046-7.878-1.479-2.429-1.501.124-3.011 5.091-3.011 6.106 0 10.352-2.068 12.931-6.299 2.122-3.479 2.572-9.689.925-12.767-.861-1.609-.703-1.934.941-1.934 2.355 0 2.782-.581 3.243-4.413.4-3.317-.576-3.89-4.149-2.436m-82 1.894a282.705 282.705 0 0 1-7.25 1.387c-3.339.586-3.75.983-3.75 3.613 0 2.288.451 2.955 2 2.955 1.875 0 2 .667 2 10.64 0 8.099-.345 10.905-1.445 11.75-.795.61-1.744 2.347-2.109 3.86l-.663 2.75h9.992c9.516 0 10.02-.107 10.595-2.25 1.078-4.025.717-4.75-2.37-4.75h-3v-8.3c0-8.135.868-10.7 3.621-10.7.671 0 1.517 1.35 1.879 3 .514 2.338 1.2 3 3.111 3 2.904 0 3.048-.367 3.812-9.75l.591-7.25h-3.107c-2.224 0-4.113 1.006-6.644 3.537l-3.537 3.537.571-3.519c.676-4.162.301-4.468-4.297-3.51m24.879 1.897c-4.977 2.621-5.564 3.253-5.13 5.523.655 3.427 1.802 3.963 4.472 2.093 2.641-1.85 7.891-2.046 9.579-.358.66.66 1.2 2.153 1.2 3.317 0 1.811-1.086 2.373-7.512 3.888-8.669 2.044-9.982 3.52-9.211 10.359.561 4.98 3.564 8.71 7.85 9.752 2.052.499 3.402-.042 6.172-2.473 3.377-2.966 3.575-3.016 4.19-1.077.853 2.687 4.116 4.35 7.076 3.607 2.497-.627 7.718-7.306 6.832-8.74-.283-.458-1.576-.833-2.873-.833-3.069 0-3.293-.926-2.27-9.403.471-3.903.6-8.488.286-10.187-1.488-8.057-10.975-10.568-20.661-5.468m72.532-1.11c-6.816 4.287-9.878 11.032-9.209 20.287.716 9.894 6.317 15.381 15.699 15.381 4.708 0 6.397-.49 9.286-2.694 9.01-6.871 10.2-22.048 2.398-30.562-2.944-3.212-3.924-3.636-9.19-3.975-4.576-.294-6.586.055-8.984 1.563M205 80.361c-4.818 1.026-5.538 1.495-5.804 3.775-.225 1.93.227 2.741 1.75 3.14 1.908.499 2.054 1.286 2.054 11.081 0 8.441-.306 10.715-1.536 11.403-.844.473-1.632 2.132-1.75 3.687l-.214 2.828 7.961-.209c4.379-.115 8.316-.428 8.75-.696 1.453-.898.861-5.37-.711-5.37-1.227 0-1.5-1.709-1.5-9.378 0-10.142.871-12.062 5.195-11.449 2.2.312 2.318.762 2.589 9.926.227 7.658-.025 9.857-1.25 10.872-.844.701-1.534 2.344-1.534 3.651 0 2.317.217 2.378 8.5 2.378h8.5v-2.883c0-2.015-.586-3.037-1.944-3.392-1.834-.48-1.91-1.208-1.358-12.908l.586-12.4-3.219-2.709c-4.34-3.652-8.082-3.51-12.626.48l-3.631 3.188.346-2.938c.415-3.522-.935-3.828-9.154-2.077m-64.932 7.513c-2.778 5.189.394 13.066 4.709 11.697 2.815-.894 3.914-6.354 2.059-10.236-1.665-3.485-5.269-4.263-6.768-1.461m35.804.78c-1.477 1.779-1.825 11.856-.572 16.567 1.076 4.048 4.144 5.335 6.677 2.802 1.583-1.583 2.023-3.334 2.023-8.055 0-10.411-4.119-16.145-8.128-11.314m-70.122 12.508c-4.679 1.709-2.775 7.442 2.052 6.18 1.718-.45 2.198-1.315 2.198-3.959 0-3.655-.133-3.724-4.25-2.221m33.675 20.279c-1.079 4.302.053 5.559 5.008 5.559 3.489 0 4.739-.453 5.578-2.021 1.419-2.65.662-3.685-3.272-4.477-1.782-.358-4.012-.868-4.956-1.133-1.209-.34-1.906.273-2.358 2.072m-57.758 8.226c-.367.366-.667 1.685-.667 2.93 0 1.586.673 2.36 2.25 2.583 2.212.315 2.255.588 2.536 16.32.321 17.994.041 20.103-2.788 21.001-1.399.444-1.998 1.513-1.998 3.566V179l9.75.175c17.458.313 20.247-.306 25.187-5.594 1.864-1.995 2.539-4.013 2.869-8.576.417-5.763.308-6.091-3.19-9.589l-3.621-3.621 2.502-2.974c1.944-2.31 2.503-4.097 2.503-7.998 0-4.379-.436-5.459-3.4-8.423l-3.4-3.4H96.267c-7.664 0-14.234.3-14.6.667m15.535 13.583c.283 5.931.433 6.266 2.951 6.557 1.855.215 3.134-.379 4.25-1.972 3.452-4.929.847-10.835-4.779-10.835-2.701 0-2.717.043-2.422 6.25M129 144.596c-5.663 3.236-5.305 2.739-4.527 6.281l.663 3.02 3.892-2.029c4.631-2.413 7.674-1.782 9.066 1.88 1.234 3.244.725 3.653-6.436 5.186-3.214.688-6.701 2.109-7.75 3.158-4.789 4.789.211 16.908 6.976 16.908 1.379 0 3.703-1.146 5.165-2.547l2.659-2.547 1.582 2.413c3.132 4.782 8.101 3.693 11.289-2.473 1.746-3.375 1.355-4.272-1.882-4.316-2.4-.033-2.284 1.014-1.587-14.388.326-7.206.266-7.417-2.905-10.25-4.254-3.801-9.892-3.904-16.205-.296m30-1.266c-3.745.974-4.551 1.609-4.804 3.789-.226 1.947.224 2.758 1.75 3.157 1.908.499 2.054 1.286 2.054 11.081 0 7.807-.351 10.751-1.354 11.343-.745.44-1.583 2.038-1.861 3.55l-.508 2.75H171v-2.893c0-1.649-.645-3.141-1.5-3.469-1.645-.631-1.995-6.749-.859-15.039.715-5.216 3.349-7.682 5.923-5.546 2.115 1.756 2.06 19.77-.064 20.585-.855.328-1.5 1.82-1.5 3.469V179h16v-3c0-2.064-.492-3-1.576-3-1.371 0-1.534-1.701-1.25-13.082l.326-13.081-2.806-2.419c-3.951-3.405-8.306-3.186-12.228.615l-3.129 3.033.445-3.033c.409-2.788.214-3.027-2.419-2.953-1.574.045-4.888.607-7.363 1.25m40.45.658c-6.228 3.992-9.339 13.412-7.445 22.538 1.377 6.632 5.079 10.881 10.826 12.429 3.585.965 4.806.849 8.431-.801 7.034-3.201 8.019-4.284 6.806-7.474-.888-2.337-1.347-2.601-2.993-1.72-1.069.572-3.762 1.04-5.984 1.04-3.462 0-4.258-.422-5.565-2.95-2.906-5.62-2.411-6.05 6.974-6.05h8.5v-5.55c0-6.017-1.901-10.791-4.945-12.42-3.219-1.723-11.243-1.196-14.605.958m4.121 6.583c-.864.865-1.571 2.44-1.571 3.5 0 1.532.709 1.929 3.441 1.929 4.114 0 4.902-.969 3.591-4.416-1.116-2.936-3.159-3.314-5.461-1.013M96.769 162.75c-.575 6.317.495 8.25 4.566 8.25 4.22 0 5.665-1.541 5.665-6.045 0-4.422-2.451-6.955-6.728-6.955-2.936 0-3.09.208-3.503 4.75m37.422.963c-1.831.35-2.245.995-2 3.114.236 2.045.928 2.745 2.943 2.978 2.347.272 2.68-.082 3.049-3.25.248-2.125-.007-3.5-.634-3.419-.577.075-2.088.335-3.358.577" fill="#1976D2" fill-rule="evenodd"/><path fill-opacity=".444" d="M11 13.5C8.571 15.975 6.809 18 7.084 18c.275 0 2.487-2.025 4.916-4.5 2.429-2.475 4.191-4.5 3.916-4.5-.275 0-2.487 2.025-4.916 4.5m232.958-.25c2.452 2.613 4.59 4.75 4.75 4.75.751 0-.043-.898-4.458-5.042L239.5 8.5l4.458 4.75M.079 35.583c.048 1.165.285 1.402.604.605.289-.722.253-1.585-.079-1.917-.332-.332-.568.258-.525 1.312m255 0c.048 1.165.285 1.402.604.605.289-.722.253-1.585-.079-1.917-.332-.332-.568.258-.525 1.312M18.607 67.582c-1.115 2.906-.626 4.276 1.643 4.598 2.218.316 2.254.555 2.524 17.09.277 16.923-.331 20.73-3.309 20.73-.954 0-1.465 1.024-1.465 2.934v2.934l12.49.062c14.732.073 18.835-1.156 23.999-7.188 4.809-5.619 6.807-12.243 6.353-21.068C59.991 71.134 52.581 66 29.558 66c-8.51 0-10.452.28-10.951 1.582M33.656 83.75c-.979 14.782-.8 22.706.544 24.05 2.869 2.869 9.498.653 12.364-4.135 2.363-3.945 2.697-18.36.545-23.462C45.549 76.505 41.547 74 37.2 74h-2.898l-.646 9.75m122.021-4.731c-1.553.466-6.102.784-10.111.708-5.45-.105-7.965.304-9.974 1.621-6.767 4.434-8.695 13.999-3.957 19.63l2.635 3.131-2.635 2.75c-1.449 1.513-2.635 3.669-2.635 4.791 0 2.167 2.873 5.35 4.829 5.35 2.142 0 1.21 1.864-1.829 3.659-4.999 2.953-3.634 9.343 2.548 11.926 10.85 4.533 25.452-3.067 25.452-13.248 0-2.719-.619-3.743-3.217-5.323-1.77-1.076-5.258-2.22-7.75-2.542-9.172-1.185-11.533-1.973-11.533-3.847 0-1.498.932-1.828 5.544-1.963 3.423-.1 6.598-.852 8.298-1.966 5.821-3.815 8.364-11.816 5.193-16.342-1.607-2.295-1.126-3.354 1.525-3.354 1.722 0 2.94-1.897 2.94-4.582 0-1.572-1.131-1.657-5.323-.399m-54.427 2.912c-6.051 2.889-7.092 4.195-5.428 6.815.619.975 1.703.887 4.995-.406 5.119-2.011 8.778-.803 9.791 3.233.827 3.298-.121 3.92-8.347 5.472-7.793 1.471-9.81 3.748-8.769 9.905.755 4.472 5.197 9.05 8.78 9.05 1.165 0 3.414-1.237 4.997-2.75l2.879-2.75 2.009 2.75c2.902 3.971 6.99 3.735 10.292-.594 3.268-4.285 3.22-5.578-.199-5.344l-2.75.188.363-11.193c.362-11.136.349-11.206-2.396-13.75-1.517-1.406-3.481-2.563-4.363-2.571-.882-.007-2.504-.244-3.604-.526-1.108-.284-4.786.817-8.25 2.471m73.491-1.534c-4.959 1.812-6.481 3.174-8.941 7.996-4.351 8.528-1.986 21.693 4.62 25.721 4.428 2.7 12.324 2.524 16.682-.372 7.296-4.849 10.101-17.294 5.955-26.426-2.959-6.516-11.054-9.574-18.316-6.919m32.692.05c-3.336.664-6.599 1.537-7.25 1.94-1.945 1.202-1.421 4.613.71 4.613 2.652 0 3.107 1.841 3.107 12.573 0 8.327-.23 9.554-2 10.659-1.1.687-2 2.266-2 3.509 0 2.154.365 2.259 7.883 2.259 7.597 0 7.901-.09 8.358-2.478.352-1.845-.037-2.64-1.524-3.112-1.869-.593-1.961-1.253-1.425-10.236.452-7.563.947-9.875 2.332-10.888 2.324-1.7 3.897-1.622 5.805.285 2.071 2.072 2.226 17.038.206 19.956-.751 1.085-1.682 2.986-2.068 4.223-.687 2.204-.538 2.25 7.249 2.25 7.62 0 7.97-.101 8.414-2.423.345-1.806-.045-2.557-1.528-2.945-1.895-.495-1.96-1.093-1.336-12.326.771-13.896.045-16.159-5.802-18.082-3.628-1.193-4.132-1.102-7.723 1.386-2.112 1.464-3.841 3.077-3.841 3.585s-.375.691-.833.408c-.459-.283-.632-1.885-.387-3.559.246-1.674.283-2.99.083-2.925-.199.066-3.093.663-6.43 1.328M70.5 81.259c-6.689 1.368-8.687 4.307-4.25 6.254 2.058.903 2.275 1.754 2.544 9.987.337 10.3-.212 13.5-2.313 13.5-.913 0-1.481.959-1.481 2.5 0 2.491.033 2.5 9.5 2.5H84v-2.906c0-2.319-.368-2.81-1.82-2.431-3.435.898-4.523-2.072-3.823-10.44.467-5.579 1.12-8.074 2.354-8.986 2.471-1.828 3.746-1.023 4.102 2.59.253 2.562.76 3.173 2.633 3.173 2.16 0 2.368-.523 3.032-7.605.413-4.414.321-7.996-.22-8.537-1.314-1.314-5.254.388-8.182 3.536-3.202 3.442-3.754 3.291-3.266-.894.462-3.955.293-4.001-8.31-2.241m71.5 4.538c-2.33.781-2.968 2.331-2.985 7.253-.016 4.978 1.256 6.95 4.485 6.95 3.112 0 4.5-1.933 4.5-6.266 0-6.017-2.371-9.153-6-7.937m33.035 3.137c-1.527 2.853-1.258 13.598.443 17.667 1.254 3.001 1.896 3.488 4.25 3.218 2.142-.247 3.053-1.114 4.009-3.819 1.48-4.188.734-13.515-1.341-16.75-1.794-2.799-5.937-2.977-7.361-.316m-70.2 11.739c-3.935 1.042-2.649 7.327 1.5 7.327 3.04 0 4.665-1.811 4.665-5.2 0-2.854-1.486-3.366-6.165-2.127m34.2 20.261c-1.406 2.628-1.306 3.652.536 5.495 3.223 3.222 11.429.754 11.429-3.439 0-1.339-1.101-2.202-3.75-2.937-5.366-1.491-7.042-1.311-8.215.881M82 132c0 1.65.338 2.947.75 2.882 3.115-.492 3.25.25 3.25 17.938 0 17.761-.008 17.826-2.5 19.993-1.375 1.196-2.5 3.077-2.5 4.18 0 1.905.653 2.007 12.788 2.007 11.295 0 13.301-.263 17.176-2.25 4.948-2.537 8.036-7.354 8.036-12.534 0-3.306-2.401-9.187-3.776-9.248-.398-.017-1.596-.692-2.663-1.498-1.89-1.43-1.869-1.539.865-4.392 3.757-3.922 4.483-10.305 1.681-14.767-2.673-4.255-6.875-5.299-21.357-5.305L82 129v3m14.821 8.5c-.098 2.475-.21 5.48-.25 6.678-.051 1.573.713 2.388 2.747 2.932 3.95 1.056 6.682-1.828 6.682-7.053 0-4.351-2.577-7.057-6.723-7.057-2.006 0-2.298.536-2.456 4.5m32.558 4.456c-4.447 2.55-5.058 3.274-4.634 5.491.56 2.927 1.012 3.052 3.696 1.021 4.274-3.233 10.559-.863 10.559 3.982 0 2.013-.857 2.522-6.731 3.998-3.702.93-7.302 2.164-8 2.744-2.042 1.695-1.58 10.143.715 13.061 3.293 4.186 6.749 4.399 10.614.652l3.308-3.206 1.218 2.674c.671 1.471 2.343 2.957 3.718 3.302 1.979.497 3.087-.032 5.328-2.54 3.593-4.02 3.662-6.135.201-6.135h-2.629l.696-9.807c.788-11.117-.127-14.464-4.583-16.768-4.138-2.14-7.802-1.723-13.476 1.531M161 143.38c-4.433.932-5.56 1.576-5.811 3.32-.198 1.379.438 2.565 1.75 3.268 1.879 1.005 2.061 2.023 2.061 11.532 0 9.406-.196 10.535-2 11.5-1.1.589-2 2.082-2 3.318 0 2.16.281 2.232 7.25 1.845 3.988-.222 7.581-.912 7.985-1.533 1.186-1.825.874-3.63-.628-3.63-2.079 0-2.318-1.628-1.684-11.48.563-8.763.646-9.004 3.424-9.977 4.345-1.522 5.653 1.042 5.653 11.077 0 5.989-.409 8.647-1.5 9.737-.825.825-1.501 2.545-1.502 3.822-.002 2.233.253 2.308 6.75 1.975 3.714-.191 7.083-.866 7.487-1.5 1.287-2.022.826-3.405-1.324-3.967-2.015-.527-2.064-.935-1.375-11.553.852-13.144.36-15.619-3.501-17.616-4.268-2.207-6.427-1.888-10.035 1.482-1.766 1.65-3.389 3-3.606 3-.217 0-.394-1.35-.394-3s-.338-2.95-.75-2.888c-.412.062-3.225.633-6.25 1.268m40.415-.013c-6.635 3.006-9.949 10.396-9.146 20.398.593 7.381 2.584 10.823 7.802 13.483 4.597 2.345 8.613 2.181 13.429-.546 2.974-1.685 4-2.898 4-4.734 0-1.915-.448-2.392-2-2.128-8.198 1.396-8.999 1.323-11.119-1.009-1.165-1.282-2.407-3.551-2.759-5.042l-.64-2.711 8.759-.289 8.759-.289.333-3.5c.43-4.531-1.292-10.2-3.784-12.455-2.577-2.332-9.723-2.95-13.634-1.178m1.83 6.883c-.55.688-1.311 2.262-1.69 3.5-.646 2.106-.397 2.25 3.878 2.25 4.744 0 5.593-1.162 3.96-5.418-.723-1.885-4.733-2.101-6.148-.332m-106.578 7.417c-.367.366-.667 3.302-.667 6.524 0 5.371.214 5.94 2.569 6.835 7.651 2.909 12.844-5.704 6.976-11.571-2.33-2.331-7.329-3.338-8.878-1.788m37.583 5.824c-3.534 1.536-4.012 3.085-1.86 6.028 1.194 1.633 1.76 1.734 4 .713 2.094-.954 2.61-1.885 2.61-4.711 0-3.938-.182-4.016-4.75-2.03M.158 220c0 1.375.227 1.938.504 1.25.278-.687.278-1.812 0-2.5-.277-.687-.504-.125-.504 1.25m255 0c0 1.375.227 1.938.504 1.25.278-.687.278-1.812 0-2.5-.277-.687-.504-.125-.504 1.25m-4.594 13.707c-.542 1.425-.428 1.54.56.56.684-.679.991-1.486.683-1.793-.308-.308-.867.247-1.243 1.233M8 239.313c0 .172 1.462 1.635 3.25 3.25l3.25 2.937-2.937-3.25C8.825 239.221 8 238.54 8 239.313m236.437 2.937-2.937 3.25 3.25-2.937c3.029-2.738 3.71-3.563 2.937-3.563-.172 0-1.635 1.463-3.25 3.25" fill="#1976D2" fill-rule="evenodd"/></svg>