<?xml version="1.0" encoding="UTF-8" standalone="no"?>
<!DOCTYPE svg PUBLIC "-//W3C//DTD SVG 1.1//EN" "http://www.w3.org/Graphics/SVG/1.1/DTD/svg11.dtd">
<svg width="100%" height="100%" viewBox="0 0 128 128" version="1.1" xmlns="http://www.w3.org/2000/svg" xmlns:xlink="http://www.w3.org/1999/xlink" xml:space="preserve" xmlns:serif="http://www.serif.com/" style="fill-rule:evenodd;clip-rule:evenodd;stroke-linejoin:round;stroke-miterlimit:2;">
    <g transform="matrix(1.58005,0,0,1.58005,-216.25,-28.3987)">
        <path d="M178,91.038L176.231,98.966C173.483,98.843 170.809,98.435 168.237,97.771L167.746,89.042L165.73,97.033C163.765,96.382 161.869,95.578 160.057,94.637L161.094,83.135C157.88,81.788 155.86,83.54 153,86C147.799,83.222 144.946,79.628 143.191,75.653L147.543,69.233L148.89,58.995L145.175,65C144.9,63.663 144.492,61.328 144.3,59.995C143.185,52.251 143.462,44.588 145,37C153.04,24.325 163.907,17.706 178,18C192.093,17.706 202.96,24.325 211,37C212.538,44.588 212.815,52.251 211.7,59.995C211.508,61.328 211.1,63.663 210.825,65L207.11,58.995L208.457,69.233L212.809,75.653C211.054,79.628 208.201,83.222 203,86C200.14,83.54 198.12,81.788 194.906,83.135L195.943,94.637C194.131,95.578 192.235,96.382 190.27,97.033L188.254,89.042L187.763,97.771C185.191,98.435 182.517,98.843 179.769,98.966L178,91.038ZM178,70.819C176.652,70.237 173.957,78.073 173.623,80.39C173.389,82.021 176,84.725 176,84.725L178,80.02L180,84.725C180,84.725 182.611,82.021 182.377,80.39C182.043,78.073 179.348,70.237 178,70.819ZM174,63C174,63 171.301,58.511 169,58C166,57.333 156,59 156,59L151.735,63.867L152.164,70.731L159,76L170.843,73.182L174,63ZM182,63L185.157,73.182L197,76L203.836,70.731L204.265,63.867L200,59C200,59 190,57.333 187,58C184.699,58.511 182,63 182,63Z" style="fill:white;"/>
    </g>
</svg>
