<?xml version="1.0" encoding="UTF-8" standalone="no"?>
<!DOCTYPE svg PUBLIC "-//W3C//DTD SVG 1.1//EN" "http://www.w3.org/Graphics/SVG/1.1/DTD/svg11.dtd">
<svg width="100%" height="100%" viewBox="0 0 3024 3024" version="1.1" xmlns="http://www.w3.org/2000/svg" xmlns:xlink="http://www.w3.org/1999/xlink" xml:space="preserve" xmlns:serif="http://www.serif.com/" style="fill-rule:evenodd;clip-rule:evenodd;stroke-linejoin:round;stroke-miterlimit:2;">
    <g transform="matrix(33.5973,0,0,33.5973,10756.6,1302.95)">
        <path d="M-277.366,-12.141L-277.366,22.094C-277.366,27.269 -278.709,31.433 -281.396,34.585C-284.084,37.737 -288.181,39.312 -293.688,39.312L-320.162,39.312C-318.171,37.056 -317.175,34.402 -317.175,31.35L-317.175,13.435C-317.175,10.384 -318.171,7.73 -320.162,5.474C-318.171,3.217 -317.175,0.564 -317.175,-2.488L-317.175,-20.402C-317.175,-23.454 -318.171,-26.107 -320.162,-28.364L-295.678,-28.364C-289.974,-28.364 -285.494,-26.887 -282.242,-23.935C-278.992,-20.982 -277.366,-17.051 -277.366,-12.141ZM-292.792,-6.369C-292.792,-8.691 -293.14,-10.45 -293.837,-11.644C-294.534,-12.838 -295.976,-13.436 -298.166,-13.436L-301.251,-13.436L-301.251,24.384L-298.166,24.384C-295.976,24.384 -294.534,23.654 -293.837,22.194C-293.14,20.735 -292.792,18.777 -292.792,16.322L-292.792,-6.369ZM-248.566,39.312L-273.049,39.312C-271.059,37.056 -270.063,34.402 -270.063,31.35L-270.063,-20.402C-270.063,-23.454 -271.059,-26.107 -273.049,-28.364L-250.557,-28.364C-244.188,-28.364 -239.229,-26.987 -235.677,-24.234C-232.129,-21.48 -230.354,-17.449 -230.354,-12.141C-230.354,-5.772 -232.676,-0.53 -237.32,3.584C-232.542,9.091 -230.155,15.692 -230.155,23.388C-230.155,28.1 -231.715,31.932 -234.832,34.883C-237.951,37.836 -242.529,39.312 -248.566,39.312ZM-254.139,-13.436L-254.139,-1.691C-251.154,-2.687 -249.049,-3.765 -247.82,-4.926C-246.592,-6.086 -245.978,-7.563 -245.978,-9.355C-245.978,-10.615 -246.376,-11.609 -247.173,-12.34C-247.97,-13.07 -249.098,-13.436 -250.557,-13.436L-254.139,-13.436ZM-254.139,12.241L-254.139,24.384L-250.557,24.384C-247.372,24.384 -245.779,22.725 -245.779,19.407C-245.779,16.621 -246.873,13.669 -249.063,10.55C-250.921,11.346 -252.615,11.911 -254.139,12.241Z" style="fill:white;"/>
    </g>
</svg>
